<svg xmlns="http://www.w3.org/2000/svg" viewBox="0 0 244.09 72.56"><defs><style>.cls-1{fill:#ececec;}.cls-2{fill:#f28c00;}.cls-3,.cls-4{fill:#fff;}.cls-3,.cls-6{fill-rule:evenodd;}.cls-5,.cls-6{fill:#1d1d1b;}</style></defs><g id="Capa_2" data-name="Capa 2"><g id="Capa_1-2" data-name="Capa 1"><polygon class="cls-1" points="0 0 72.56 0 72.56 72.56 0 72.56 0 0 0 0"/><polygon class="cls-2" points="0.09 0 72.65 0 72.65 25.92 0.09 25.92 0.09 0 0.09 0"/><path class="cls-3" d="M22.91,26h3.27l1.15-3.48h5.48L33.92,26h3.35L31.79,10.38H28.48L22.91,26Zm7.17-11.77h0L32,20h-3.8l1.91-5.73Z"/><polygon class="cls-4" points="40.27 26 43.5 26 43.5 13.27 47.9 13.27 47.9 10.38 35.87 10.38 35.87 13.27 40.27 13.27 40.27 26 40.27 26"/><polygon class="cls-4" points="49.58 26 52.6 26 52.6 15.04 52.64 15.04 56.24 26 58.72 26 62.32 14.93 62.36 14.93 62.36 26 65.38 26 65.38 10.38 60.84 10.38 57.59 21.12 57.55 21.12 54.12 10.38 49.58 10.38 49.58 26 49.58 26"/><path class="cls-5" d="M91.07,15.07A5.36,5.36,0,0,0,85.55,10c-4.14,0-6.36,3.69-6.36,8.21s2,8.13,6.21,8.13c3.38,0,5.46-2.36,5.8-6.25H89.42c-.17,2.58-1.53,4.5-3.87,4.5-3.22,0-4.57-3-4.57-6.53,0-3.25,1.35-6.31,4.55-6.31a3.67,3.67,0,0,1,3.76,3.32Z"/><path class="cls-6" d="M99.17,22a2.73,2.73,0,0,1-3,2.55c-1,0-1.88-.43-1.88-1.66s.9-1.81,2-2,2.28-.24,2.9-.76V22Zm2.59,2.45a1.32,1.32,0,0,1-.49.1c-.5,0-.5-.39-.5-1.26V17.52c0-2.65-1.9-3.11-3.65-3.11-2.16,0-4,1-4.12,3.78h1.6c.08-1.66,1.07-2.14,2.43-2.14,1,0,2.16.26,2.16,1.88,0,1.4-1.51,1.27-3.27,1.66s-3.29.92-3.29,3.47a2.91,2.91,0,0,0,3.21,3.17,4.05,4.05,0,0,0,3.42-1.74c0,1.22.53,1.74,1.36,1.74a2,2,0,0,0,1.14-.3V24.49Z"/><path class="cls-5" d="M103.24,26h1.6v-7c0-.85.7-2.88,2.59-2.88,1.43,0,1.83,1.05,1.83,2.51V26h1.59v-7c0-1.74,1-2.88,2.54-2.88s1.88,1.12,1.88,2.51V26h1.6V17.69c0-2.34-1.3-3.28-3.23-3.28a3.5,3.5,0,0,0-3,1.92,2.58,2.58,0,0,0-2.67-1.92,3.5,3.5,0,0,0-3.14,1.92h0V14.67h-1.51V26Z"/><path class="cls-6" d="M126.84,20.22c0,2.21-.73,4.37-2.91,4.37s-3.06-2.05-3.06-4.28.82-4.26,3-4.26,3,2.05,3,4.17ZM119.33,30.3h1.59V24.46h0a3.53,3.53,0,0,0,3.14,1.77c3,0,4.43-2.68,4.43-5.87s-1.48-5.95-4.47-5.95A3.17,3.17,0,0,0,121,16.2h0V14.67h-1.59V30.3Z"/><path class="cls-6" d="M144.31,10.37h-1.59v5.81h0a3.56,3.56,0,0,0-3.14-1.77c-3,0-4.44,2.69-4.44,5.88s1.49,5.94,4.48,5.94a3.16,3.16,0,0,0,3.1-1.79h0V26h1.59V10.37ZM136.8,20.42c0-2.21.73-4.37,2.91-4.37s3.06,2.05,3.06,4.28-.83,4.26-3,4.26-3-2.05-3-4.17Z"/><path class="cls-6" d="M153.48,22.39a2.42,2.42,0,0,1-2.52,2.2c-2.12,0-3.08-1.74-3-3.71h7.27c.09-2.73-1-6.47-4.4-6.47-2.65,0-4.57,2.49-4.57,5.88s1.56,5.94,4.67,5.94c2.18,0,3.72-1.35,4.15-3.84Zm-5.54-3.15c.11-1.72,1.1-3.19,2.78-3.19s2.72,1.42,2.8,3.19Z"/><polygon class="cls-5" points="165.39 25.97 167.17 25.97 167.17 12.12 171.65 12.12 171.65 10.37 160.92 10.37 160.92 12.12 165.39 12.12 165.39 25.97 165.39 25.97"/><path class="cls-6" d="M176.79,22a2.73,2.73,0,0,1-3,2.55c-1,0-1.87-.43-1.87-1.66s.9-1.81,2-2,2.27-.24,2.89-.76V22Zm2.6,2.45a1.32,1.32,0,0,1-.49.1c-.51,0-.51-.39-.51-1.26V17.52c0-2.65-1.9-3.11-3.64-3.11-2.17,0-4,1-4.12,3.78h1.6c.07-1.66,1.07-2.14,2.42-2.14,1,0,2.16.26,2.16,1.88,0,1.4-1.5,1.27-3.27,1.66s-3.29.92-3.29,3.47a2.92,2.92,0,0,0,3.22,3.17,4.08,4.08,0,0,0,3.42-1.74c0,1.22.52,1.74,1.35,1.74a2,2,0,0,0,1.15-.3V24.49Z"/><path class="cls-5" d="M180.81,26h1.6V21c0-2.87.94-4.57,3.51-4.57v-2c-1.73-.06-2.8.83-3.57,2.65h0V14.67h-1.51V26Z"/><path class="cls-5" d="M187.06,26h1.6V21c0-2.87.94-4.57,3.52-4.57v-2c-1.73-.06-2.8.83-3.57,2.65h0V14.67h-1.51V26Z"/><path class="cls-6" d="M199.39,22a2.73,2.73,0,0,1-3,2.55c-1,0-1.88-.43-1.88-1.66s.9-1.81,2-2,2.28-.24,2.9-.76V22ZM202,24.49a1.32,1.32,0,0,1-.49.1c-.51,0-.51-.39-.51-1.26V17.52c0-2.65-1.89-3.11-3.64-3.11-2.16,0-4,1-4.12,3.78h1.6c.08-1.66,1.07-2.14,2.42-2.14,1,0,2.17.26,2.17,1.88,0,1.4-1.51,1.27-3.27,1.66s-3.29.92-3.29,3.47a2.91,2.91,0,0,0,3.21,3.17,4.06,4.06,0,0,0,3.42-1.74c0,1.22.53,1.74,1.35,1.74a2,2,0,0,0,1.15-.3V24.49Z"/><path class="cls-6" d="M207.37,24.46c-2.1,0-2.74-2.27-2.74-4.3s.82-4.11,2.87-4.11,2.76,2.05,2.76,4-.79,4.37-2.89,4.37Zm4.47-9.79h-1.5v1.62h0a3.11,3.11,0,0,0-2.89-1.88c-3.37,0-4.49,3.3-4.49,6,0,3.08,1.44,5.72,4.34,5.72a3.19,3.19,0,0,0,3-2.05h0v.74c0,2.54-.83,4.28-2.91,4.28-1.06,0-2.45-.48-2.52-1.83h-1.6c.1,2.47,2.2,3.32,4,3.32,3.07,0,4.51-1.88,4.51-5.55V14.67Z"/><path class="cls-6" d="M213.72,20.33c0,3.3,1.64,5.9,4.72,5.9s4.71-2.6,4.71-5.9-1.63-5.92-4.71-5.92-4.72,2.6-4.72,5.92Zm1.69,0c0-2.75,1.36-4.28,3-4.28s3,1.53,3,4.28-1.35,4.26-3,4.26-3-1.53-3-4.26Z"/><path class="cls-5" d="M225,26h1.6V19.59c0-2,.94-3.54,2.88-3.54,1.22,0,2,.9,2,2.27V26h1.6V18.54c0-2.42-.79-4.13-3.35-4.13a3.33,3.33,0,0,0-3.16,2.06h0v-1.8H225V26Z"/><path class="cls-6" d="M241.49,22a2.73,2.73,0,0,1-3,2.55c-1,0-1.88-.43-1.88-1.66s.91-1.81,2-2,2.27-.24,2.89-.76V22Zm2.6,2.45a1.32,1.32,0,0,1-.49.1c-.51,0-.51-.39-.51-1.26V17.52c0-2.65-1.9-3.11-3.65-3.11-2.16,0-4,1-4.11,3.78h1.6c.07-1.66,1.07-2.14,2.42-2.14,1,0,2.16.26,2.16,1.88,0,1.4-1.5,1.27-3.27,1.66s-3.29.92-3.29,3.47a2.92,2.92,0,0,0,3.22,3.17,4.08,4.08,0,0,0,3.42-1.74c0,1.22.52,1.74,1.35,1.74a2,2,0,0,0,1.15-.3V24.49Z"/><path class="cls-6" d="M83,54.3H84.6V44.5H82.93v3.57h0A2.06,2.06,0,0,0,81.1,47c-1.8,0-2.71,1.77-2.71,3.68s.9,3.8,2.74,3.8A2,2,0,0,0,83,53.39h0v.91Zm0-3.57C83,51.9,82.66,53,81.55,53s-1.48-1.16-1.48-2.28.38-2.26,1.48-2.26S83,49.58,83,50.73Z"/><path class="cls-6" d="M91.65,51.22c.12-2.18-.89-4.21-3-4.21-1.86,0-3.12,1.62-3.12,3.75s1.19,3.73,3.12,3.73a2.8,2.8,0,0,0,2.85-2.39H90.07a1.38,1.38,0,0,1-1.32.92c-.94,0-1.46-.56-1.5-1.8ZM87.25,50a1.44,1.44,0,0,1,1.39-1.51c.81,0,1.18.52,1.33,1.51Z"/><polygon class="cls-5" points="95.97 54.3 97.64 54.3 97.64 44.5 95.97 44.5 95.97 54.3 95.97 54.3"/><path class="cls-6" d="M102.77,51.55c0,.43,0,1.64-1.36,1.64-.54,0-1-.18-1-.91s.47-.92,1-1,1.11-.13,1.4-.41v.72Zm-2.2-2.17a1,1,0,0,1,1.11-1.07c.59,0,1.09.13,1.09,1s-1,.76-2,.94-2.07.55-2.07,2.15a1.94,1.94,0,0,0,2.07,2.13,2.57,2.57,0,0,0,2.06-.88,3.11,3.11,0,0,0,.12.69h1.7a4,4,0,0,1-.22-1.58V49c0-1.7-1.46-2-2.68-2-1.37,0-2.77.55-2.87,2.37Z"/><polygon class="cls-5" points="109.2 54.3 110.93 54.3 110.93 47.42 110.96 47.42 113.02 54.3 114.45 54.3 116.52 47.35 116.54 47.35 116.54 54.3 118.28 54.3 118.28 44.5 115.67 44.5 113.8 51.24 113.78 51.24 111.81 44.5 109.2 44.5 109.2 54.3 109.2 54.3"/><path class="cls-6" d="M119.54,50.76c0,2.25,1.24,3.73,3.15,3.73s3.17-1.48,3.17-3.73S124.62,47,122.69,47s-3.15,1.48-3.15,3.75Zm1.68,0c0-1.14.34-2.28,1.47-2.28s1.49,1.14,1.49,2.28S123.84,53,122.69,53s-1.47-1.14-1.47-2.26Z"/><path class="cls-6" d="M126.94,54.3h1.59v-.91h0a2,2,0,0,0,2,1.1c1.21,0,2.52-1.14,2.52-3.75S131.78,47,130.57,47a2.15,2.15,0,0,0-1.93,1.06h0V44.5h-1.68v9.8Zm4.48-3.54c0,1.18-.44,2.26-1.43,2.26s-1.43-1.08-1.43-2.26.44-2.28,1.43-2.28,1.43,1.08,1.43,2.28Z"/><path class="cls-6" d="M134.2,54.3h1.68V47.2H134.2v7.1Zm1.68-9.8H134.2v1.6h1.68V44.5Z"/><polygon class="cls-5" points="137.24 54.3 138.92 54.3 138.92 44.5 137.24 44.5 137.24 54.3 137.24 54.3"/><path class="cls-6" d="M140.29,54.3H142V47.2h-1.67v7.1ZM142,44.5h-1.67v1.6H142V44.5Z"/><path class="cls-5" d="M145.41,45.07h-1.68V47.2h-1v1.31h1v4.18c0,1.42.9,1.69,1.93,1.69a5.14,5.14,0,0,0,1-.07V52.79a2.35,2.35,0,0,1-.52.05c-.57,0-.71-.16-.71-.82V48.51h1.23V47.2h-1.23V45.07Z"/><path class="cls-6" d="M151.24,51.55c0,.43-.05,1.64-1.36,1.64-.54,0-1-.18-1-.91s.48-.92,1-1,1.11-.13,1.39-.41v.72ZM149,49.38a1,1,0,0,1,1.11-1.07c.59,0,1.09.13,1.09,1s-1,.76-2,.94-2.08.55-2.08,2.15a1.94,1.94,0,0,0,2.08,2.13,2.57,2.57,0,0,0,2.05-.88,3.11,3.11,0,0,0,.12.69h1.7a4,4,0,0,1-.21-1.58V49c0-1.7-1.47-2-2.68-2-1.37,0-2.78.55-2.87,2.37Z"/><path class="cls-5" d="M156.34,45.07h-1.68V47.2h-1v1.31h1v4.18c0,1.42.9,1.69,1.93,1.69a5.14,5.14,0,0,0,1-.07V52.79a2.35,2.35,0,0,1-.52.05c-.57,0-.71-.16-.71-.82V48.51h1.23V47.2h-1.23V45.07Z"/><path class="cls-6" d="M77.93,40.57h1.88l.66-2.18h3.15l.64,2.18h1.93L83,30.77h-1.9l-3.2,9.8Zm4.12-7.38h0l1.06,3.59H81l1.09-3.59Z"/><path class="cls-5" d="M92.46,33.47H90.79v3.72c0,1.45-.39,2-1.3,2s-1.08-.58-1.08-1.75v-4H86.74v4.37c0,1.76.45,2.92,2.23,2.92a2.1,2.1,0,0,0,1.86-1.18h0v1h1.59v-7.1Z"/><path class="cls-5" d="M95.86,31.35H94.19v2.12h-1v1.31h1V39c0,1.41.89,1.68,1.92,1.68a6.07,6.07,0,0,0,1-.06V39.06a2.31,2.31,0,0,1-.52.06c-.57,0-.71-.17-.71-.83V34.78h1.23V33.47H95.86V31.35Z"/><path class="cls-6" d="M97.7,37c0,2.25,1.24,3.73,3.15,3.73S104,39.28,104,37s-1.24-3.75-3.17-3.75S97.7,34.76,97.7,37Zm1.68,0c0-1.14.34-2.28,1.47-2.28s1.49,1.14,1.49,2.28-.34,2.26-1.49,2.26S99.38,38.16,99.38,37Z"/><path class="cls-5" d="M105.1,40.57h1.68v-3.2c0-1.25.42-2.28,1.65-2.28a2.67,2.67,0,0,1,.6.07V33.35a1.1,1.1,0,0,0-.36-.07,2.18,2.18,0,0,0-2,1.51h0V33.47H105.1v7.1Z"/><path class="cls-6" d="M109.74,40.57h1.68v-7.1h-1.68v7.1Zm1.68-9.8h-1.68v1.61h1.68V30.77Z"/><path class="cls-5" d="M114.86,31.35h-1.68v2.12h-1v1.31h1V39c0,1.41.9,1.68,1.93,1.68a6.07,6.07,0,0,0,1-.06V39.06a2.31,2.31,0,0,1-.52.06c-.57,0-.71-.17-.71-.83V34.78h1.23V33.47h-1.23V31.35Z"/><path class="cls-6" d="M120.69,37.83c0,.42,0,1.63-1.36,1.63-.54,0-1-.18-1-.91s.47-.92,1-1,1.11-.12,1.39-.41v.73Zm-2.2-2.17a1,1,0,0,1,1.11-1.07c.59,0,1.09.12,1.09,1s-1,.75-2,.93-2.08.55-2.08,2.16a1.94,1.94,0,0,0,2.08,2.12,2.57,2.57,0,0,0,2.05-.88,3.11,3.11,0,0,0,.12.69h1.7a4.25,4.25,0,0,1-.21-1.58V35.3c0-1.7-1.47-2-2.68-2-1.37,0-2.78.55-2.87,2.38Z"/><path class="cls-5" d="M125.79,31.35h-1.68v2.12h-1v1.31h1V39c0,1.41.9,1.68,1.93,1.68a6.14,6.14,0,0,0,1-.06V39.06a2.37,2.37,0,0,1-.52.06c-.57,0-.71-.17-.71-.83V34.78H127V33.47h-1.23V31.35Z"/><polygon class="cls-5" points="133.14 40.57 134.99 40.57 134.99 32.58 137.52 32.58 137.52 30.77 130.61 30.77 130.61 32.58 133.14 32.58 133.14 40.57 133.14 40.57"/><path class="cls-6" d="M142.78,37.5c.12-2.19-.88-4.22-3-4.22-1.85,0-3.12,1.62-3.12,3.75s1.2,3.73,3.12,3.73a2.81,2.81,0,0,0,2.86-2.38H141.2a1.38,1.38,0,0,1-1.32.91c-.93,0-1.45-.56-1.5-1.79Zm-4.4-1.24a1.44,1.44,0,0,1,1.39-1.51c.82,0,1.18.52,1.34,1.51Z"/><path class="cls-5" d="M143.77,40.57h1.68v-3.2c0-1.25.43-2.28,1.65-2.28a2.84,2.84,0,0,1,.61.07V33.35a1.16,1.16,0,0,0-.37-.07,2.19,2.19,0,0,0-2,1.51h0V33.47h-1.6v7.1Z"/><path class="cls-5" d="M148.37,40.57H150v-3.2c0-1.25.43-2.28,1.65-2.28a2.77,2.77,0,0,1,.61.07V33.35a1.16,1.16,0,0,0-.37-.07,2.19,2.19,0,0,0-2,1.51h0V33.47h-1.59v7.1Z"/><path class="cls-6" d="M153,40.57h1.68v-7.1H153v7.1Zm1.68-9.8H153v1.61h1.68V30.77Z"/><path class="cls-5" d="M158.13,31.35h-1.68v2.12h-1v1.31h1V39c0,1.41.9,1.68,1.92,1.68a6.07,6.07,0,0,0,1-.06V39.06a2.24,2.24,0,0,1-.52.06c-.56,0-.7-.17-.7-.83V34.78h1.22V33.47h-1.22V31.35Z"/><path class="cls-6" d="M160,37c0,2.25,1.24,3.73,3.16,3.73s3.16-1.48,3.16-3.73-1.24-3.75-3.16-3.75S160,34.76,160,37Zm1.68,0c0-1.14.34-2.28,1.48-2.28s1.48,1.14,1.48,2.28-.34,2.26-1.48,2.26-1.48-1.13-1.48-2.26Z"/><path class="cls-5" d="M167.36,40.57H169v-3.2c0-1.25.43-2.28,1.65-2.28a2.84,2.84,0,0,1,.61.07V33.35a1.16,1.16,0,0,0-.37-.07,2.19,2.19,0,0,0-2,1.51h0V33.47h-1.6v7.1Z"/><path class="cls-6" d="M172,40.57h1.68v-7.1H172v7.1Zm1.68-9.8H172v1.61h1.68V30.77Z"/><path class="cls-6" d="M178.8,37.83c0,.42-.05,1.63-1.36,1.63-.54,0-1-.18-1-.91s.47-.92,1-1,1.11-.12,1.39-.41v.73Zm-2.2-2.17a1,1,0,0,1,1.11-1.07c.6,0,1.09.12,1.09,1s-1,.75-2,.93-2.08.55-2.08,2.16a1.94,1.94,0,0,0,2.08,2.12,2.57,2.57,0,0,0,2.05-.88,3.11,3.11,0,0,0,.12.69h1.7a4.25,4.25,0,0,1-.21-1.58V35.3c0-1.7-1.47-2-2.68-2-1.37,0-2.78.55-2.87,2.38Z"/><polygon class="cls-5" points="181.82 40.57 183.5 40.57 183.5 30.77 181.82 30.77 181.82 40.57 181.82 40.57"/></g></g></svg>