<?xml version="1.0" encoding="UTF-8"?>
<!-- Created with Inkscape (http://www.inkscape.org/) -->
<svg width="245.44" height="245.44" version="1.1" viewBox="0 0 245.44 245.44" xmlns="http://www.w3.org/2000/svg">
 <defs>
  <clipPath id="clipPath4">
   <path transform="matrix(.33335 0 0 .33335 -26.156 -76)" d="m0 0h768v768h-768z" clip-rule="evenodd"/>
  </clipPath>
  <clipPath id="clipPath5">
   <path transform="matrix(.33335 0 0 .33335 -19.469 -136)" d="m0 0h768v768h-768z" clip-rule="evenodd"/>
  </clipPath>
 </defs>
 <path transform="matrix(.95996 0 0 .95996 25.109 72.957)" d="m40.367-39.845c0.99695 0.19532 1.7416 0.53306 2.2299 1.0092 0.49644 0.48016 0.74873 1.0376 0.74873 1.6765 0 1.0661-0.30112 1.8352-0.89522 2.3113-0.58596 0.48016-1.5219 0.66734-2.7996 0.56968-2.8891-0.21567-5.1394-0.36216-6.7548-0.43947-1.6073-0.08545-3.7233-0.14649-6.3479-0.17904-1.1841 5.8922-2.2747 11.813-3.2716 17.758-0.34995 2.1811-0.71618 4.704-1.1068 7.5687-0.3825 2.8647-0.63479 5.176-0.76501 6.9339-0.06511 0.9237-0.45168 1.6358-1.1556 2.1322-0.69583 0.50051-1.5422 0.74873-2.5392 0.74873-1.0539 0-1.8678-0.25229-2.4415-0.76501-0.57782-0.52085-0.86267-1.1923-0.86267-2.0183 0-0.76907 0.11801-2.0387 0.35809-3.8087 0.23601-1.7782 0.51272-3.646 0.83011-5.5992 0.35809-1.9532 0.63479-3.6501 0.83011-5.0946 0.34588-2.4293 0.74059-4.8423 1.1882-7.2431 0.45575-2.3967 0.90336-4.6714 1.351-6.8199 0.09766-0.47609 0.20346-1.0254 0.32553-1.6439 0.13021-0.62665 0.2767-1.3266 0.43947-2.0997-3.1373 0.09766-5.5992 0.35809-7.3896 0.78128-1.7904 0.41506-3.0682 0.99288-3.825 1.7416-0.74873 0.74873-1.1231 1.7172-1.1231 2.8973 0 1.0987 0.3174 2.1404 0.96033 3.1251 0.13021 0.22787 0.19532 0.46796 0.19532 0.71618 0 0.61038-0.36623 1.1801-1.0905 1.7091-0.71618 0.53306-1.4608 0.79756-2.2299 0.79756-0.54527 0-0.98881-0.16277-1.3347-0.4883-0.64293-0.5412-1.1719-1.3184-1.5951-2.3276-0.41506-1.0092-0.61851-2.1526-0.61851-3.4344 0-2.7223 0.88708-4.9034 2.6694-6.5432 1.7782-1.648 4.4802-2.8566 8.1058-3.6297 3.6338-0.76907 8.3011-1.1556 13.998-1.1556 3.5158 0 6.3194 0.06511 8.4151 0.19532 2.1038 0.13021 3.939 0.33774 5.5015 0.61852zm0.24415 14.307c-1.3469 0-2.3561-0.30926-3.0275-0.92777-0.67548-0.62665-1.0092-1.5015-1.0092-2.6206 0-1.115 0.43947-2.0509 1.3184-2.7996 0.87894-0.75687 1.9736-1.1394 3.2879-1.1394 1.1801 0 2.1404 0.28891 2.881 0.86266 0.73652 0.57782 1.1068 1.3957 1.1068 2.4578 0 1.2818-0.41912 2.295-1.2533 3.0437-0.82604 0.74873-1.9288 1.1231-3.3042 1.1231zm-0.39064 25.782c-2.0753 0-3.5809-0.73652-4.5249-2.2136-0.94405-1.473-1.4161-3.4262-1.4161-5.8596 0-1.4324 0.17904-3.2757 0.53713-5.5341 0.36623-2.2543 0.84639-4.3622 1.4324-6.3154 0.28077-1.0173 0.65921-1.7172 1.1394-2.0997 0.4883-0.39064 1.2574-0.58596 2.3113-0.58596 1.6277 0 2.4415 0.54527 2.4415 1.6277 0 0.8057-0.30519 2.6612-0.9115 5.5666-0.77314 3.528-1.1556 5.9166-1.1556 7.1618 0 0.95626 0.13021 1.6887 0.39064 2.1974 0.26043 0.51272 0.69176 0.76501 1.3021 0.76501 0.57375 0 1.2899-0.39471 2.1485-1.1882 0.86674-0.80163 2.0224-2.0671 3.4669-3.7925 0.37843-0.45575 0.8057-0.68362 1.2859-0.68362 0.42319 0 0.7528 0.19532 0.99288 0.58596 0.23601 0.3825 0.35809 0.90743 0.35809 1.5788 0 1.2818-0.30519 2.2747-0.9115 2.9786-3.1699 3.8739-6.1322 5.8108-8.8871 5.8108zm32.838-9.4568c0.73652 0 1.1068 0.49644 1.1068 1.4812 0 1.2492-0.28484 2.2258-0.84639 2.9298-0.55341 0.70804-1.3143 1.058-2.2787 1.058l-1.7742-0.04883c-0.32553-0.032553-0.79349-0.04883-1.3998-0.04883 0.13021 1.823 0.19532 3.646 0.19532 5.469 0 4.8383-0.63479 9.0498-1.9044 12.631-1.2614 3.5809-3.2309 5.3713-5.9084 5.3713-1.8352 0-3.2228-1.0498-4.1668-3.1414-0.94405-2.0956-1.4161-4.647-1.4161-7.6501 0-3.7436 0.41506-7.4466 1.2533-11.101-1.0865 1.6724-2.5066 2.5066-4.2645 2.5066-1.7701 0-3.2391-0.73652-4.411-2.2136-1.1638-1.473-1.7416-3.3774-1.7416-5.7131 0-2.527 0.5941-4.9237 1.7904-7.1943 1.2045-2.2787 2.8037-4.1099 4.8016-5.5015 2.0061-1.3876 4.1424-2.0834 6.413-2.0834 0.76907 0 1.3672 0.25636 1.7904 0.765 0.28077-1.0173 0.70804-1.7009 1.2859-2.0509 0.57375-0.35809 1.3754-0.53713 2.409-0.53713 1.0824 0 1.8108 0.16277 2.1811 0.4883 0.36623 0.3174 0.53713 0.77721 0.50458 1.3835 0 0.3825-0.20346 1.2696-0.60224 2.6694-0.40285 1.3917-0.66734 2.3072-0.79756 2.7508-0.51272 1.7904-1.0661 3.7762-1.6602 5.9573-0.58596 2.1729-1.058 4.1506-1.4161 5.941-1.0214 5.119-1.53 9.6521-1.53 13.591 0 1.473 0.11801 2.7263 0.35809 3.7599 0.23601 1.0417 0.55341 1.5626 0.94405 1.5626 0.31333 0 0.65514-0.54527 1.0254-1.6277 0.36622-1.0865 0.67548-2.5392 0.92777-4.3622 0.26043-1.823 0.39064-3.7599 0.39064-5.8108 0-2.4293-0.10987-4.59-0.32553-6.4781-0.03255-0.16277-0.04883-0.41506-0.04883-0.76501 0-1.0621 0.26043-1.9451 0.78128-2.6531 0.52899-0.70397 1.2737-1.058 2.2299-1.058 0.13021 0 1.351-0.040692 3.6623-0.13021 0.95219-0.09766 1.766-0.14649 2.4415-0.14649zm-19.483 4.6063c0.72431 0 1.4242-0.45575 2.0997-1.3672 0.67141-0.9115 1.1556-2.0061 1.4486-3.2879l2.0671-8.7406c-1.412 0.03255-2.7019 0.53306-3.8739 1.4975-1.1638 0.95626-2.0916 2.2258-2.7833 3.8087-0.68362 1.587-1.0254 3.2553-1.0254 5.0132 0 1.001 0.18311 1.766 0.55341 2.295 0.36623 0.52085 0.8708 0.78128 1.5137 0.78128zm21.445 4.8505c-1.4324 0-2.6043-0.65921-3.5158-1.9858-0.9115-1.3347-1.3672-2.9949-1.3672-4.9807 0-2.3967 0.15463-4.5941 0.47202-6.5921 0.32553-2.0061 0.85046-4.1261 1.5788-6.3642 0.32554-0.9644 0.77314-1.6521 1.351-2.0671 0.57375-0.41099 1.4852-0.61851 2.7345-0.61851 0.70397 0 1.1923 0.11394 1.4649 0.34181 0.26856 0.21974 0.40692 0.54934 0.40692 0.99288 0 0.26043-0.17497 1.1312-0.52085 2.6043-0.32553 1.1841-0.58596 2.2543-0.78128 3.2065-0.64293 3.3652-0.96033 5.6073-0.96033 6.7223 0 0.67548 0.08138 1.1475 0.24415 1.4161 0.16277 0.27263 0.41506 0.40692 0.765 0.40692 0.4883 0 1.0905-0.47609 1.8067-1.4324 0.71618-0.96439 1.4812-2.4252 2.295-4.3784 0.82197-1.9532 1.6155-4.3499 2.3764-7.1943 0.26043-0.9644 0.65107-1.6521 1.1719-2.0671 0.52899-0.41099 1.3266-0.61851 2.3927-0.61851 0.73652 0 1.2452 0.08952 1.53 0.26043 0.29298 0.17497 0.43947 0.50051 0.43947 0.9766 0 0.8057-0.40285 2.9949-1.2045 6.5758-0.90336 4.1017-1.351 6.6328-1.351 7.5849 0 0.61038 0.13021 1.0824 0.39064 1.4161 0.26043 0.33774 0.5941 0.50458 1.0092 0.50458 0.63886 0 1.3998-0.39064 2.2787-1.1719s2.0549-2.0509 3.532-3.8087c0.37843-0.45575 0.8057-0.68362 1.2859-0.68362 0.42319 0 0.7528 0.19532 0.99288 0.58596 0.23601 0.3825 0.35809 0.90743 0.35809 1.5788 0 1.2818-0.30519 2.2747-0.9115 2.9786-1.3795 1.6928-2.8606 3.0885-4.4435 4.1831-1.587 1.0865-3.3856 1.6277-5.4039 1.6277-1.53 0-2.6612-0.59003-3.3856-1.7742-0.71618-1.1801-1.0743-2.8484-1.0743-4.9969-0.54527 2.1729-1.3632 3.8413-2.4578 5.0132-1.0865 1.1719-2.2543 1.7579-3.4995 1.7579zm38.694-10.954c0.41099 0 0.73652 0.19532 0.97661 0.58596 0.23601 0.3825 0.35808 0.90743 0.35808 1.5788 0 1.2818-0.30518 2.2747-0.91149 2.9786-1.1841 1.4446-2.8566 2.7752-5.0132 3.9878-2.1607 1.2167-4.472 1.823-6.9339 1.823-3.3652 0-5.9736-0.9115-7.8291-2.7345-1.8555-1.823-2.7833-4.3174-2.7833-7.4873 0-2.2136 0.45982-4.2686 1.3835-6.1689 0.93184-1.9084 2.2218-3.4222 3.8739-4.5412 1.648-1.115 3.5158-1.6765 5.5992-1.6765 1.8555 0 3.3408 0.55341 4.4598 1.6602 1.115 1.0987 1.6765 2.588 1.6765 4.4761 0 2.2136-0.79348 4.1139-2.3764 5.6968-1.587 1.587-4.2645 2.8403-8.0407 3.7599 0.80163 1.4771 2.3194 2.2136 4.5575 2.2136 1.4405 0 3.0804-0.50458 4.9156-1.5137 1.8433-1.0092 3.4384-2.3276 4.7854-3.9552 0.39064-0.45575 0.82197-0.68362 1.3021-0.68362zm-12.094-6.9502c-1.1841 0-2.1892 0.69176-3.0112 2.0671-0.81384 1.3672-1.2208 3.0275-1.2208 4.9807v0.09766c1.8881-0.44354 3.3734-1.1109 4.4598-2.002 1.0946-0.89929 1.6439-1.941 1.6439-3.1251 0-0.60631-0.1709-1.0946-0.50457-1.4649-0.33775-0.36623-0.79349-0.55341-1.3672-0.55341zm30.958 6.9502c0.41099 0 0.73653 0.19532 0.97661 0.58596 0.23601 0.3825 0.35808 0.90743 0.35808 1.5788 0 1.2818-0.30518 2.2747-0.91149 2.9786-1.3672 1.6928-2.8728 3.0885-4.5086 4.1831-1.6277 1.0865-3.4995 1.6277-5.6155 1.6277-6.5229 0-9.7823-4.5941-9.7823-13.786 0-1.3998 0.0407-2.8199 0.13021-4.2645h-1.8718c-0.95626 0-1.6032-0.17091-1.9369-0.52086-0.33774-0.35809-0.50457-0.91963-0.50457-1.6928 0-1.7904 0.72024-2.6857 2.1648-2.6857h2.7345c0.5412-3.5158 1.3713-6.7263 2.4903-9.6358 1.115-2.9176 2.4659-5.2411 4.0529-6.9664 1.5829-1.7253 3.2879-2.588 5.1109-2.588 1.3428 0 2.4008 0.5941 3.174 1.7742 0.76908 1.1841 1.1556 2.6694 1.1556 4.4598 0 4.9603-2.0834 9.2777-6.2503 12.956h5.3876c0.50865 0 0.87081 0.11394 1.0905 0.34181 0.22788 0.21974 0.34181 0.63072 0.34181 1.237 0 2.2136-1.8067 3.3204-5.4201 3.3204h-5.8596c-0.0651 1.5951-0.0977 2.8444-0.0977 3.7436 0 3.3327 0.39064 5.6724 1.1719 7.0153 0.78942 1.3347 2.0346 2.002 3.7274 2.002 1.3754 0 2.5921-0.41099 3.646-1.237 1.0498-0.83418 2.2991-2.0834 3.7436-3.7436 0.39064-0.45575 0.82197-0.68362 1.3021-0.68362zm-8.3988-26.58c-0.4883 0-1.0336 0.60224-1.6277 1.8067-0.58596 1.1963-1.1475 2.8566-1.6765 4.9807-0.52085 2.1282-0.95625 4.4883-1.3021 7.0804 1.8881-1.6358 3.3042-3.471 4.2482-5.5015 0.94405-2.0264 1.4161-3.8739 1.4161-5.5341 0-1.8881-0.35402-2.8321-1.058-2.8321zm11.752 37.534c-1.9858 0-3.5727-0.72024-4.7528-2.1648-1.1841-1.4405-1.7742-3.3286-1.7742-5.6643 0-2.5595 0.59003-4.9847 1.7742-7.2757 1.1801-2.2869 2.7548-4.1261 4.7202-5.5178 1.9736-1.3876 4.0692-2.0834 6.2828-2.0834 0.70397 0 1.176 0.13835 1.4161 0.40692 0.23602 0.27264 0.43947 0.76094 0.60224 1.4649 0.65921-0.13021 1.3591-0.19532 2.0997-0.19532 1.5707 0 2.3601 0.56155 2.3601 1.6765 0 0.67548-0.24008 2.2747-0.71618 4.8016-0.74059 3.6785-1.1068 6.2421-1.1068 7.6826 0 0.48016 0.118 0.86267 0.35809 1.1556 0.23601 0.28484 0.54526 0.42319 0.92777 0.42319 0.6063 0 1.3428-0.39064 2.2136-1.1719 0.86673-0.78128 2.0346-2.0509 3.4995-3.8087 0.39064-0.45575 0.82197-0.68362 1.3021-0.68362 0.41098 0 0.73652 0.19532 0.9766 0.58596 0.23601 0.3825 0.35809 0.90743 0.35809 1.5788 0 1.2818-0.30519 2.2747-0.9115 2.9786-1.3021 1.6277-2.6938 3.0071-4.1668 4.1343-1.4771 1.119-2.9054 1.6765-4.2808 1.6765-1.0539 0-2.0183-0.35809-2.8972-1.0743-0.87894-0.72431-1.5422-1.7131-1.9858-2.9624-1.6724 2.6938-3.7721 4.0366-6.2991 4.0366zm1.7253-4.8505c0.70396 0 1.3754-0.41099 2.0183-1.237 0.63886-0.83418 1.1068-1.941 1.3998-3.3204l1.7742-8.8383c-1.3469 0.03255-2.588 0.53713-3.7274 1.5137-1.1312 0.9766-2.0305 2.2706-2.7019 3.8739-0.67549 1.5951-1.0092 3.2879-1.0092 5.0783 0 0.98881 0.19939 1.7253 0.60224 2.2136 0.39878 0.48016 0.94812 0.71618 1.644 0.71618zm21.225-20.932c-1.3469 0-2.356-0.30926-3.0275-0.92777-0.67548-0.62665-1.0092-1.5015-1.0092-2.6206 0-1.115 0.43947-2.0509 1.3184-2.7996 0.87894-0.75687 1.9736-1.1394 3.2879-1.1394 1.1801 0 2.1404 0.28891 2.881 0.86266 0.73652 0.57782 1.1068 1.3957 1.1068 2.4578 0 1.2818-0.41913 2.295-1.2533 3.0437-0.82604 0.74873-1.9288 1.1231-3.3042 1.1231zm-0.39064 25.782c-2.0753 0-3.5809-0.73652-4.5249-2.2136-0.94404-1.473-1.4161-3.4262-1.4161-5.8596 0-1.4324 0.17905-3.2757 0.53713-5.5341 0.36623-2.2543 0.84639-4.3622 1.4324-6.3154 0.28078-1.0173 0.65921-1.7172 1.1394-2.0997 0.4883-0.39064 1.2574-0.58596 2.3113-0.58596 1.6277 0 2.4415 0.54527 2.4415 1.6277 0 0.8057-0.30519 2.6612-0.9115 5.5666-0.77314 3.528-1.1556 5.9166-1.1556 7.1618 0 0.95626 0.13021 1.6887 0.39064 2.1974 0.26043 0.51272 0.69176 0.76501 1.3021 0.76501 0.57375 0 1.2899-0.39471 2.1485-1.1882 0.86674-0.80163 2.0224-2.0671 3.4669-3.7925 0.37843-0.45575 0.8057-0.68362 1.2859-0.68362 0.42319 0 0.7528 0.19532 0.99288 0.58596 0.23601 0.3825 0.35808 0.90743 0.35808 1.5788 0 1.2818-0.30518 2.2747-0.91149 2.9786-3.1699 3.8739-6.1322 5.8108-8.8871 5.8108zm9.3184 0c-1.2167 0-2.0753-0.63886-2.5717-1.9207-0.50051-1.2777-0.74873-3.3286-0.74873-6.1526 0-4.1546 0.5941-8.1058 1.7904-11.849 0.28077-0.93184 0.74873-1.6114 1.3998-2.0346 0.6592-0.43133 1.5829-0.65107 2.767-0.65107 0.63886 0 1.0824 0.08138 1.3347 0.24415 0.26043 0.15463 0.39064 0.45575 0.39064 0.9115 0 0.51272-0.24008 1.6602-0.71618 3.4507-0.31739 1.2818-0.56968 2.4049-0.765 3.3693-0.19532 0.95626-0.35809 2.1404-0.4883 3.5483 1.062-2.7548 2.2502-4.9969 3.5646-6.7223 1.3103-1.7335 2.5961-2.9664 3.8576-3.6948 1.2574-0.73652 2.4171-1.1068 3.4832-1.1068 2.0712 0 3.1088 1.0376 3.1088 3.1088 0 0.42319-0.14242 1.4324-0.42319 3.0275-0.26043 1.2818-0.39064 2.0834-0.39064 2.409 0 1.119 0.39877 1.6765 1.2045 1.6765 0.89929 0 2.0509-0.70397 3.4507-2.116 0.4232-0.41099 0.85453-0.61852 1.3021-0.61852 0.41099 0 0.73652 0.18718 0.9766 0.55341 0.24822 0.3703 0.37437 0.8586 0.37437 1.4649 0 1.1841-0.32147 2.1119-0.96033 2.7833-0.90336 0.9237-1.9532 1.7172-3.1577 2.3764-1.1963 0.65107-2.4659 0.9766-3.8088 0.9766-1.6928 0-2.9786-0.42726-3.8576-1.2859-0.87894-0.86673-1.3184-2.0387-1.3184-3.5158 0-0.47609 0.0407-0.95219 0.13021-1.4324 0.0651-0.63886 0.0977-1.0743 0.0977-1.3021 0-0.50865-0.17497-0.76501-0.52085-0.76501-0.48017 0-1.115 0.53713-1.9044 1.6114-0.78128 1.0743-1.5585 2.4903-2.3276 4.2482-0.76093 1.7579-1.3835 3.6134-1.8718 5.5666-0.34995 1.4975-0.75686 2.5148-1.2208 3.0437-0.46795 0.53306-1.1963 0.79756-2.1811 0.79756zm35.609-9.5056c0.4232 0 0.7528 0.19532 0.99288 0.58596 0.23601 0.3825 0.35809 0.90743 0.35809 1.5788 0 1.1516-0.27264 2.1404-0.81384 2.9624-0.90335 1.3795-2.0793 2.4537-3.532 3.2228-1.4568 0.77314-3.1902 1.1556-5.2086 1.1556-3.0722 0-5.4608-0.91556-7.1618-2.7508-1.6928-1.8433-2.5392-4.3337-2.5392-7.471 0-2.2136 0.45981-4.2686 1.3835-6.1689 0.93184-1.9084 2.2218-3.4222 3.8738-4.5412 1.648-1.115 3.5158-1.6765 5.5992-1.6765 1.8555 0 3.3408 0.55341 4.4598 1.6602 1.115 1.0987 1.6765 2.588 1.6765 4.4761 0 2.2136-0.79349 4.1139-2.3764 5.6968-1.587 1.587-4.2808 2.8403-8.0895 3.7599 0.76907 1.4771 2.0671 2.2136 3.8901 2.2136 1.3103 0 2.3927-0.30112 3.2391-0.9115 0.84639-0.60631 1.8311-1.6317 2.9624-3.0763 0.37844-0.47609 0.8057-0.71618 1.2859-0.71618zm-7.8616-8.3988c-1.1841 0-2.1892 0.69176-3.0112 2.0671-0.81383 1.3672-1.2208 3.0275-1.2208 4.9807v0.09766c1.8881-0.44354 3.3734-1.1109 4.4598-2.002 1.0946-0.89929 1.644-1.941 1.644-3.1251 0-0.60631-0.17091-1.0946-0.50458-1.4649-0.33774-0.36623-0.79349-0.55341-1.3672-0.55341z" clip-path="url(#clipPath4)" fill="#fff" aria-label="Tiquetair"/>
 <text transform="matrix(.95996 0 0 .95996 18.689 130.55)" clip-path="url(#clipPath5)" xml:space="preserve"><tspan x="0" y="0" dx="0 0 0 0 0 0 0 0 0 0 0 0 -0.35156241" fill="#ffffff" font-family="Verdana" font-size="20px">En col·laboració amb:</tspan></text>
 <g transform="matrix(.025348 0 0 -.025348 8.861 299.18)" fill="#fff">
  <path d="m3231 6169c-131-25-245-117-305-242-43-91-41-81-132-527-84-412-94-515-60-595 43-100 140-145 314-145 246 1 374 91 454 320 10 30 55 232 99 449 91 453 97 526 55 618-29 62-80 100-163 119-64 15-194 17-262 3zm123-285c9-8 16-28 16-44 0-46-159-820-175-851-20-37-43-49-97-49s-68 13-68 63c0 39 140 745 162 820 6 21 23 47 36 58 31 24 104 26 126 3z"/>
  <path d="m7663 6166c-180-46-306-185-349-387-40-189 16-326 180-444 107-77 156-143 156-213 0-52-31-147-57-174-46-49-131-45-155 7-9 20-8 45 6 120 10 52 15 99 11 104-4 7-57 11-141 11h-135l-13-32c-22-52-39-182-34-251 12-148 108-233 278-244 274-19 465 125 531 403 28 117 24 248-10 312-32 62-86 118-173 179-135 94-162 144-139 249 21 94 79 137 150 113 39-14 45-34 36-135l-7-84h125c87 0 128 4 135 13 20 25 35 104 36 192 0 74-3 97-21 131-27 52-90 106-140 123-57 19-209 23-270 7z"/>
  <path d="m2121 6146c-7-9-62-258-122-553-60-296-111-550-115-564l-5-27 99-4c89-3 104-7 143-33 24-16 46-28 49-27 3 0 21 81 40 179l36 178 51 3c98 6 102-23 43-315-63-314-68-303 113-303 90 0 137 4 145 12 7 7 12 36 12 65s18 139 39 245c39 189 44 225 42 300-1 41-39 94-79 109-25 10-25 10 19 38 96 60 138 136 173 315 41 204 7 312-116 367-50 23-65 24-304 27-217 3-252 1-263-12zm366-251c32-22 37-70 18-167-21-104-49-157-95-180-42-22-110-24-110-5 0 8 16 92 35 187s35 175 35 177c0 11 99 0 117-12z"/>
  <path d="m3841 6146c-16-19-304-1433-297-1453 8-20 401-18 503 3 99 20 177 60 234 121 96 101 118 163 206 588 56 273 66 336 67 430 1 102-1 114-27 168-32 64-71 99-149 130-48 19-77 21-289 25-205 3-237 2-248-12zm378-288c38-41 36-72-34-420-73-361-93-425-147-458-45-27-143-29-136-2 2 9 44 216 94 459l89 443h57c46 0 61-4 77-22z"/>
  <path d="m4908 6143c-22-26-550-1433-544-1449 7-19 258-20 274-1 6 6 29 67 52 135l42 122h270l-3-132-4-133 144-3c91-2 148 1 155 8 13 13 66 1428 54 1453-8 15-29 17-217 17-186 0-210-2-223-17zm127-579c-8-142-15-276-15-296v-38h-187l106 300c57 165 106 298 108 296 2-1-4-119-12-262z"/>
  <path d="m5650 6145c-15-18-303-1433-296-1452 8-19 558-19 575 0 11 15 51 193 51 232 0 13-7 26-16 29s-69 6-135 6c-65 0-119 1-119 3s52 259 115 571 115 581 115 597v29h-139c-111 0-141-3-151-15z"/>
  <path d="m6292 6148c-11-15-292-1399-292-1440v-28h139c111 0 141 3 151 15 15 18 303 1433 296 1452-7 18-279 19-294 1z"/>
  <path d="m6710 6145c-15-18-303-1433-296-1452 4-10 66-13 315-13 285 0 311 1 320 18 5 9 19 66 31 125 17 85 19 111 10 123-10 11-44 14-166 14-85 0-154 1-154 3s16 82 35 177 35 175 35 177 58 3 129 3c97 0 131 3 140 14 15 18 55 221 48 240-5 13-27 16-133 16h-126l5 28c3 15 16 80 28 145l23 117h156c85 0 160 4 167 8 6 4 16 19 21 32 17 48 45 207 39 224-6 14-38 16-310 16-258 0-306-2-317-15z"/>
  <path d="m1642 6133c-11-10-68-90-128-178-59-88-173-257-254-375-630-923-794-1167-798-1185-2-11 6-33 18-48l21-27h310c170 0 309-3 309-7 1-5-56-281-126-615-116-550-127-610-114-633 15-28 47-40 78-31 12 4 134 184 313 464 161 251 358 558 437 682 313 487 382 599 382 617 0 11-9 29-20 41-20 22-26 22-295 22-255 0-275 1-275 18 0 9 54 274 121 587 149 707 137 631 109 660s-60 32-88 8z"/>
  <path d="m2036 4444c-39-60-105-163-147-229l-77-120-102-499c-55-274-99-505-96-512 8-21 401-19 503 2 99 20 177 60 234 121 96 101 118 163 206 588 56 273 66 336 67 430 1 102-1 114-27 168-55 112-136 148-347 155l-145 4zm253-196c38-41 36-72-34-420-73-361-93-425-147-458-45-27-143-29-136-2 2 9 44 216 94 459l89 443h57c46 0 61-4 77-22z"/>
  <path d="m2800 4535c-15-18-303-1433-296-1452 4-10 66-13 315-13 285 0 311 1 320 18 5 9 19 66 31 125 17 85 19 111 10 123-10 11-44 14-166 14-85 0-154 1-154 3s16 82 35 177 35 175 35 177 58 3 129 3c97 0 131 3 140 14 15 18 55 221 48 240-5 13-27 16-133 16h-126l5 28c3 15 16 80 28 145l23 117h156c85 0 160 4 167 8 6 4 16 19 21 32 17 48 45 207 39 224-6 14-38 16-310 16-258 0-306-2-317-15z"/>
  <path d="m3510 4535c-15-18-303-1433-296-1452 8-19 558-19 575 0 11 15 51 193 51 232 0 13-7 26-16 29s-69 6-135 6c-65 0-119 1-119 3s52 259 115 571 115 581 115 597v29h-139c-111 0-141-3-151-15z"/>
  <path d="m4440 4535c-15-18-303-1433-296-1452 8-19 558-19 575 0 11 15 51 193 51 232 0 13-7 26-16 29s-69 6-135 6c-65 0-119 1-119 3s52 259 115 571 115 581 115 597v29h-139c-111 0-141-3-151-15z"/>
  <path d="m5080 4535c-15-18-303-1433-296-1452 8-19 558-19 575 0 11 15 51 193 51 232 0 13-7 26-16 29s-69 6-135 6c-65 0-119 1-119 3s52 259 115 571 115 581 115 597v29h-139c-111 0-141-3-151-15z"/>
  <path d="m5958 4533c-22-26-550-1433-544-1449 7-19 258-20 274-1 6 6 29 67 52 135l42 122h270l-3-132-4-133 144-3c91-2 148 1 155 8 13 13 66 1428 54 1453-8 15-29 17-217 17-186 0-210-2-223-17zm127-579c-8-142-15-276-15-296v-38h-187l106 300c57 165 106 298 108 296 2-1-4-119-12-262z"/>
  <path d="m6720 4535c-15-18-303-1433-296-1452 7-16 256-19 272-3 6 6 44 175 85 375s76 361 79 359c2-3 9-107 15-232s14-233 19-240c4-7 31-12 71-12 53 0 66 3 78 21 8 11 61 121 118 245 56 123 104 223 106 221 1-2-29-164-69-359-39-196-68-363-65-372 5-14 26-16 131-16 91 0 128 4 138 13 16 17 303 1429 295 1451-5 14-28 16-150 16-125 0-146-2-159-17-9-10-77-157-153-328-75-170-145-325-154-344l-18-34-6 144c-4 79-10 232-13 339-4 107-11 205-15 218-8 21-12 22-153 22-115 0-146-3-156-15z"/>
  <path d="m7831 4536c-16-19-304-1433-297-1453 4-10 37-13 140-13 155 0 159 2 175 83 6 28 28 138 49 242l38 190 91 6c275 20 398 145 465 476 55 273 24 385-127 455-47 22-65 23-286 26-204 3-237 1-248-12zm354-261c15-14 25-36 25-53 0-44-50-283-66-314-23-44-62-68-110-68-24 0-44 1-44 3s20 104 45 227 45 225 45 227 18 3 40 3c30 0 47-7 65-25z"/>
 </g>
</svg>
