<?xml version="1.0" encoding="UTF-8" standalone="no"?>
<!-- Created with Inkscape (http://www.inkscape.org/) -->

<svg
   version="1.1"
   id="svg1"
   width="245.44"
   height="245.44"
   viewBox="0 0 245.44 245.44"
   sodipodi:docname="Icona Tiquetaire-opti.svg"
   inkscape:version="1.4.2 (ebf0e940, 2025-05-08)"
   xmlns:inkscape="http://www.inkscape.org/namespaces/inkscape"
   xmlns:sodipodi="http://sodipodi.sourceforge.net/DTD/sodipodi-0.dtd"
   xmlns="http://www.w3.org/2000/svg"
   xmlns:svg="http://www.w3.org/2000/svg">
  <defs
     id="defs1">
    <clipPath
       clipPathUnits="userSpaceOnUse"
       id="clipPath4">
      <path
         d="M 0,0 H 768 V 768 H 0 Z"
         transform="matrix(0.31999999,0,0,0.31999999,-25.124999,-128.14062)"
         clip-rule="evenodd"
         id="path4" />
    </clipPath>
  </defs>
  <sodipodi:namedview
     id="namedview1"
     pagecolor="#ffffff"
     bordercolor="#000000"
     borderopacity="0.25"
     inkscape:showpageshadow="2"
     inkscape:pageopacity="0.0"
     inkscape:pagecheckerboard="true"
     inkscape:deskcolor="#d1d1d1"
     inkscape:zoom="1.1365159"
     inkscape:cx="17.597642"
     inkscape:cy="89.747975"
     inkscape:window-width="2752"
     inkscape:window-height="1487"
     inkscape:window-x="0"
     inkscape:window-y="25"
     inkscape:window-maximized="0"
     inkscape:current-layer="g1">
    <inkscape:page
       x="0"
       y="0"
       inkscape:label="1"
       id="page1"
       width="245.44"
       height="245.44"
       margin="0"
       bleed="0" />
  </sodipodi:namedview>
  <g
     id="g1"
     inkscape:groupmode="layer"
     inkscape:label="1">
    <g
       id="g2">
      <g
         id="g3" />
    </g>
    <path
       id="path3"
       d="m 38.734378,-38.234371 c 0.957031,0.1875 1.671875,0.511719 2.140625,0.96875 0.476562,0.460937 0.71875,0.996094 0.71875,1.609375 0,1.023437 -0.289063,1.761719 -0.859375,2.21875 -0.5625,0.460937 -1.460938,0.640625 -2.6875,0.546875 -2.761719,-0.21875 -4.917969,-0.363281 -6.468751,-0.4375 -1.554687,-0.07031 -3.589844,-0.125 -6.109375,-0.15625 -1.136719,5.648438 -2.179687,11.328125 -3.125,17.046876 -0.34375,2.085937 -0.699219,4.5 -1.0625,7.25 -0.367188,2.7500001 -0.609375,4.9687502 -0.734375,6.6562502 -0.0625,0.8867188 -0.433594,1.5703126 -1.109375,2.04687512 -0.679688,0.48046877 -1.492188,0.71875003 -2.4375,0.71875003 -1.011719,0 -1.796875,-0.24218751 -2.359375,-0.73437503 -0.554688,-0.50000002 -0.828125,-1.14453132 -0.828125,-1.93750012 0,-0.7382812 0.113281,-1.9570313 0.34375,-3.6562501 0.238281,-1.7070313 0.507812,-3.5000002 0.8125,-5.3750001 0.34375,-1.875 0.601562,-3.503907 0.78125,-4.890625 0.34375,-2.332032 0.726562,-4.648438 1.15625,-6.953126 0.425781,-2.300781 0.851562,-4.476562 1.28125,-6.53125 0.09375,-0.46875 0.203125,-1 0.328125,-1.59375 0.125,-0.59375 0.265625,-1.257813 0.421875,-2 -3.011719,0.09375 -5.375,0.339844 -7.09375,0.734375 -1.718751,0.398437 -2.9453131,0.960938 -3.6718756,1.6875 -0.71875,0.71875 -1.0781251,1.648438 -1.0781251,2.78125 0,1.042969 0.3046876,2.039063 0.9218751,2.984375 0.125,0.21875 0.1875,0.453125 0.1875,0.703125 0,0.585938 -0.3515625,1.132813 -1.0468751,1.640625 -0.6875,0.5 -1.4023438,0.75 -2.140625,0.75 -0.5234376,0 -0.9492188,-0.148437 -1.2812501,-0.453125 -0.6171875,-0.53125 -1.125,-1.273437 -1.5312501,-2.234375 -0.3984375,-0.96875 -0.59375,-2.066406 -0.59375,-3.296875 0,-2.613281 0.8476563,-4.707031 2.5468751,-6.28125 1.7070313,-1.582031 4.3046877,-2.742188 7.7968758,-3.484375 3.488281,-0.738282 7.960937,-1.109375 13.421875,-1.109375 3.382813,0 6.082032,0.0625 8.09375,0.1875 2.007813,0.125 3.765626,0.324218 5.265626,0.59375 z m 0.246093,13.734375 c -1.292968,0 -2.261718,-0.296875 -2.90625,-0.890625 -0.648437,-0.601562 -0.96875,-1.441406 -0.96875,-2.515625 0,-1.082031 0.421875,-1.984375 1.265625,-2.703125 0.84375,-0.71875 1.894532,-1.078125 3.15625,-1.078125 1.132813,0 2.054688,0.277344 2.765626,0.828125 0.707031,0.554688 1.0625,1.335938 1.0625,2.34375 0,1.230469 -0.402344,2.210938 -1.203125,2.9375 -0.804688,0.71875 -1.859376,1.078125 -3.171876,1.078125 z m -0.375,24.73437635 c -2,0 -3.453125,-0.70312503 -4.359375,-2.10937505 -0.898437,-1.4140626 -1.34375,-3.2968752 -1.34375,-5.6406253 0,-1.375 0.171875,-3.144531 0.515625,-5.3125 0.351563,-2.164063 0.804688,-4.1875 1.359375,-6.0625 0.28125,-0.976563 0.648438,-1.648438 1.109375,-2.015626 0.457032,-0.375 1.195313,-0.5625 2.21875,-0.5625 1.5625,0 2.34375,0.523438 2.34375,1.562501 0,0.773437 -0.292968,2.554687 -0.875,5.34375 -0.742187,3.386719 -1.109375,5.6796875 -1.109375,6.875 0,0.9179688 0.117188,1.6210938 0.359375,2.1093751 0.25,0.4921875 0.664063,0.734375 1.25,0.734375 0.5625,0 1.253907,-0.3789062 2.078126,-1.140625 0.832031,-0.7695313 1.9375,-1.9843751 3.3125,-3.6406252 0.375,-0.4257809 0.789062,-0.6406249 1.25,-0.6406249 0.394531,0 0.707031,0.183594 0.9375,0.5468749 0.226562,0.3671875 0.34375,0.8710938 0.34375,1.5156251 0,1.2304688 -0.292969,2.1835938 -0.875,2.8593751 -3.03125,3.7187502 -5.871094,5.57812525 -8.515626,5.57812525 z M 70.109379,-8.843745 c 0.707031,0 1.0625,0.4765625 1.0625,1.421875 0,1.1992188 -0.273437,2.1367189 -0.8125,2.8125001 -0.53125,0.6796876 -1.257813,1.0156251 -2.171875,1.0156251 l -1.71875,-0.046875 c -0.304688,-0.03125 -0.746094,-0.046875 -1.328125,-0.046875 0.125,1.7500001 0.1875,3.50000013 0.1875,5.2500002 0,4.6328127 -0.609375,8.6718756 -1.828125,12.1093756 -1.210938,3.445313 -3.105469,5.171875 -5.687501,5.171875 -1.75,0 -3.078125,-1.007812 -3.984375,-3.015625 -0.90625,-2.011719 -1.359375,-4.464844 -1.359375,-7.3593753 0,-3.5859377 0.398438,-7.1328128 1.203125,-10.6406255 -1.042969,1.60546887 -2.40625,2.40625015 -4.09375,2.40625015 -1.699219,0 -3.109375,-0.70312503 -4.234375,-2.10937505 -1.117188,-1.4140626 -1.671875,-3.2500002 -1.671875,-5.5000003 0,-2.4257813 0.570312,-4.726563 1.71875,-6.90625 1.15625,-2.175782 2.691406,-3.929688 4.609375,-5.265625 1.925781,-1.343751 3.976563,-2.015626 6.15625,-2.015626 0.738282,0 1.304688,0.25 1.703125,0.75 0.28125,-0.988281 0.695313,-1.648437 1.250001,-1.984375 0.550781,-0.34375 1.316406,-0.515625 2.296875,-0.515625 1.039062,0 1.738281,0.15625 2.09375,0.46875 0.351562,0.304688 0.515625,0.746094 0.484375,1.328125 0,0.375 -0.195313,1.230469 -0.578125,2.562501 -0.375,1.335937 -0.625,2.214843 -0.75,2.640625 -0.492188,1.71875 -1.023438,3.625 -1.59375,5.71875 -0.5625,2.0859375 -1.015625,3.9921876 -1.359375,5.7187501 -0.980469,4.90625024 -1.468751,9.2500004 -1.468751,13.0312506 0,1.40625 0.113282,2.6093753 0.34375,3.6093753 0.226563,1 0.523438,1.5 0.890626,1.5 0.3125,0 0.644531,-0.523438 1,-1.5625 0.351562,-1.042969 0.648437,-2.4453128 0.890625,-4.2031253 0.25,-1.7500001 0.375,-3.6054689 0.375,-5.5625003 0,-2.33203133 -0.109375,-4.4062502 -0.328125,-6.2187502 -0.03125,-0.15625 -0.04687,-0.3984376 -0.04687,-0.7343751 0,-1.0195313 0.25,-1.8632813 0.75,-2.5312501 0.507812,-0.6757813 1.226562,-1.015625 2.15625,-1.015625 0.125,0 1.289062,-0.046875 3.5,-0.140625 0.914062,-0.09375 1.695312,-0.140625 2.34375,-0.140625 z m -18.703126,4.4218752 c 0.707031,0 1.382813,-0.4375001 2.03125,-1.3125001 0.644532,-0.875 1.109375,-1.9257813 1.390625,-3.1562501 l 1.96875,-8.375 c -1.34375,0.02344 -2.578125,0.496093 -3.703125,1.421875 -1.125,0.917968 -2.015625,2.136719 -2.671875,3.65625 -0.65625,1.523437 -0.984375,3.125 -0.984375,4.8125 0,0.9609376 0.171875,1.6953126 0.515625,2.2031251 0.351563,0.5 0.835938,0.7500001 1.453125,0.7500001 z M 72.00391,0.23438035 c -1.375,0 -2.5,-0.63281253 -3.375,-1.90625005 -0.875,-1.2812501 -1.3125,-2.8750002 -1.3125,-4.7812502 0,-2.3007814 0.148438,-4.4101561 0.453125,-6.3281251 0.300781,-1.914063 0.804688,-3.953125 1.515625,-6.109375 0.3125,-0.914063 0.742188,-1.570313 1.296875,-1.968751 0.550782,-0.40625 1.425782,-0.609375 2.625,-0.609375 0.675782,0 1.144532,0.109375 1.40625,0.328125 0.257813,0.21875 0.390625,0.542969 0.390625,0.96875 0,0.242188 -0.171875,1.070313 -0.515625,2.484376 -0.304687,1.136718 -0.546875,2.164062 -0.734375,3.078125 -0.617187,3.230469 -0.921875,5.3828125 -0.921875,6.453125 0,0.6484375 0.07813,1.1015625 0.234375,1.3593751 0.15625,0.2617187 0.398438,0.390625 0.734375,0.390625 0.457032,0 1.03125,-0.4570313 1.71875,-1.3750001 0.695313,-0.9257813 1.437501,-2.320313 2.218751,-4.1875 0.78125,-1.875 1.539062,-4.179688 2.28125,-6.921875 0.25,-0.914063 0.625,-1.570313 1.125,-1.968751 0.507812,-0.40625 1.269531,-0.609375 2.28125,-0.609375 0.707031,0 1.195312,0.08984 1.46875,0.265625 0.28125,0.167969 0.421875,0.480469 0.421875,0.9375 0,0.773438 -0.386719,2.875001 -1.15625,6.312501 -0.855469,3.929687 -1.28125,6.3554688 -1.28125,7.2812501 0,0.5859375 0.117187,1.0390625 0.359375,1.359375 0.25,0.3125 0.570312,0.46875 0.96875,0.46875 0.613281,0 1.34375,-0.375 2.1875,-1.125 0.851562,-0.75 1.984375,-1.9687501 3.390625,-3.6562502 0.375,-0.4257809 0.789063,-0.6406249 1.25,-0.6406249 0.394531,0 0.707031,0.183594 0.9375,0.5468749 0.226563,0.3671875 0.34375,0.8710938 0.34375,1.5156251 0,1.2304688 -0.292969,2.1835938 -0.875,2.8593751 -1.324219,1.6250001 -2.746094,2.9648439 -4.265625,4.0156252 -1.511719,1.04296878 -3.234375,1.56250005 -5.171875,1.56250005 -1.480469,0 -2.5625,-0.56640627 -3.25,-1.70312505 -0.6875,-1.1328126 -1.03125,-2.7343751 -1.03125,-4.7968752 -0.523438,2.0937501 -1.308594,3.7031251 -2.359376,4.8281252 -1.042968,1.11718753 -2.164062,1.67187505 -3.359375,1.67187505 z M 109.13282,-10.26562 c 0.40625,0 0.72265,0.183594 0.95312,0.5468749 0.22657,0.3671875 0.34375,0.8710938 0.34375,1.5156251 0,1.2304688 -0.29297,2.1835938 -0.875,2.8593751 -1.13672,1.3867188 -2.74218,2.6640626 -4.8125,3.8281252 -2.07422,1.16796877 -4.29297,1.75000005 -6.656247,1.75000005 -3.230469,0 -5.734376,-0.87500004 -7.515626,-2.62500015 -1.78125,-1.75 -2.671875,-4.1445314 -2.671875,-7.1875003 0,-2.1249999 0.441406,-4.0976559 1.328125,-5.9218749 0.894532,-1.820313 2.132813,-3.269532 3.71875,-4.34375 1.582032,-1.082032 3.375001,-1.625001 5.375001,-1.625001 1.781252,0 3.207032,0.53125 4.281252,1.593751 1.07031,1.0625 1.60937,2.5 1.60937,4.3125 0,2.117187 -0.76172,3.933594 -2.28125,5.453125 -1.52343,1.5234375 -4.093747,2.7265625 -7.718748,3.6093751 0.769532,1.4179688 2.226563,2.1250001 4.375001,2.1250001 1.382812,0 2.957027,-0.4843751 4.718747,-1.4531251 1.76953,-0.96875 3.30078,-2.2343751 4.59375,-3.7968752 0.36328,-0.4257809 0.77344,-0.6406249 1.23438,-0.6406249 z m -11.609377,-6.6875 c -1.136719,0 -2.09375,0.664062 -2.875001,1.984375 -0.78125,1.324219 -1.171875,2.917969 -1.171875,4.78125 v 0.09375 c 1.812501,-0.425781 3.238282,-1.066406 4.281251,-1.921875 1.039062,-0.863281 1.5625,-1.863281 1.5625,-3 0,-0.582032 -0.164063,-1.050782 -0.484375,-1.40625 -0.324219,-0.351563 -0.761719,-0.53125 -1.3125,-0.53125 z m 29.714847,6.6875 c 0.40625,0 0.72265,0.183594 0.95312,0.5468749 0.22657,0.3671875 0.34375,0.8710938 0.34375,1.5156251 0,1.2304688 -0.29297,2.1835938 -0.875,2.8593751 -1.32422,1.6250001 -2.77343,2.9648439 -4.34375,4.0156252 -1.5625,1.04296878 -3.35547,1.56250005 -5.375,1.56250005 -6.27344,0 -9.40625,-4.40625015 -9.40625,-13.21875035 0,-1.351563 0.0469,-2.722657 0.14063,-4.109375 h -1.79688 c -0.91797,0 -1.53906,-0.164063 -1.85937,-0.5 -0.32422,-0.34375 -0.48438,-0.878907 -0.48438,-1.609375 0,-1.718751 0.69141,-2.578126 2.07813,-2.578126 h 2.625 c 0.51953,-3.382812 1.3164,-6.472656 2.39062,-9.265625 1.07031,-2.789063 2.36719,-5.015625 3.89063,-6.671875 1.51953,-1.664063 3.15625,-2.5 4.90625,-2.5 1.28906,0 2.30078,0.574218 3.03125,1.71875 0.73828,1.136719 1.10937,2.5625 1.10937,4.28125 0,4.761719 -1.99609,8.90625 -5.98437,12.4375 h 5.15625 c 0.48828,0 0.84375,0.109375 1.0625,0.328125 0.21875,0.210938 0.32812,0.605469 0.32812,1.1875 0,2.117188 -1.73437,3.171876 -5.20312,3.171876 h -5.625 c -0.0625,1.542968 -0.0937,2.742187 -0.0937,3.59375 0,3.199219 0.375,5.4453125 1.125,6.7343751 0.75,1.28125 1.9414,1.921875 3.57812,1.921875 1.3125,0 2.47266,-0.3945312 3.48438,-1.1875 1.01953,-0.8007813 2.22265,-2.0000001 3.60937,-3.5937502 0.36328,-0.4257809 0.77344,-0.6406249 1.23438,-0.6406249 z m -8.0625,-25.531251 c -0.46094,0 -0.97657,0.578125 -1.54688,1.734375 -0.5625,1.15625 -1.10156,2.757813 -1.60937,4.796875 -0.5,2.042969 -0.92188,4.304688 -1.26563,6.78125 1.8125,-1.5625 3.17188,-3.316406 4.07813,-5.265625 0.90625,-1.945312 1.35937,-3.722656 1.35937,-5.328125 0,-1.8125 -0.33984,-2.71875 -1.01562,-2.71875 z m 11.29297,36.03125135 c -1.90625,0 -3.42969,-0.69140628 -4.5625,-2.07812505 -1.13672,-1.3828126 -1.70313,-3.1953127 -1.70313,-5.4375003 0,-2.4570313 0.56641,-4.78125 1.70313,-6.96875 1.13281,-2.195313 2.64453,-3.960938 4.53125,-5.296875 1.89453,-1.343751 3.89843,-2.015626 6.01562,-2.015626 0.67578,0 1.12891,0.132813 1.35938,0.390625 0.22656,0.261719 0.42187,0.730469 0.57812,1.406251 0.64453,-0.113282 1.32031,-0.171875 2.03125,-0.171875 1.5,0 2.25,0.539062 2.25,1.609375 0,0.648437 -0.23047,2.179687 -0.6875,4.59375 -0.71094,3.542969 -1.0625,6 -1.0625,7.3750001 0,0.4609375 0.11328,0.828125 0.34375,1.109375 0.23828,0.2734375 0.53906,0.40625 0.90625,0.40625 0.58203,0 1.28516,-0.375 2.10938,-1.125 0.83203,-0.75 1.95703,-1.9687501 3.375,-3.6562502 0.36328,-0.4257809 0.77343,-0.6406249 1.23437,-0.6406249 0.40625,0 0.72266,0.183594 0.95313,0.5468749 0.22656,0.3671875 0.34375,0.8710938 0.34375,1.5156251 0,1.2304688 -0.29297,2.1835938 -0.875,2.8593751 -1.26172,1.5625001 -2.60157,2.8867189 -4.01563,3.9687502 -1.40625,1.07421878 -2.77344,1.60937505 -4.09375,1.60937505 -1.01172,0 -1.9375,-0.34375002 -2.78125,-1.03125004 -0.84375,-0.69531251 -1.48437,-1.64453131 -1.92187,-2.84375011 -1.59375,2.5859376 -3.60547,3.87500015 -6.03125,3.87500015 z m 1.65625,-4.65625015 c 0.67578,0 1.32031,-0.3945313 1.9375,-1.1875001 0.61328,-0.8007813 1.0625,-1.8632813 1.34375,-3.1875001 l 1.70312,-8.46875 c -1.29297,0.02344 -2.48437,0.5 -3.57812,1.4375 -1.09375,0.9375 -1.96485,2.179687 -2.60938,3.71875 -0.63672,1.53125 -0.95312,3.15625 -0.95312,4.875 0,0.9609376 0.1875,1.6679689 0.5625,2.1250001 0.38281,0.4609375 0.91406,0.6875001 1.59375,0.6875001 z M 152.4961,-24.499996 c -1.29297,0 -2.26172,-0.296875 -2.90625,-0.890625 -0.64844,-0.601562 -0.96875,-1.441406 -0.96875,-2.515625 0,-1.082031 0.42188,-1.984375 1.26563,-2.703125 0.84375,-0.71875 1.89453,-1.078125 3.15625,-1.078125 1.13281,0 2.05468,0.277344 2.76562,0.828125 0.70703,0.554688 1.0625,1.335938 1.0625,2.34375 0,1.230469 -0.40234,2.210938 -1.20312,2.9375 -0.80469,0.71875 -1.85938,1.078125 -3.17188,1.078125 z m -0.375,24.73437635 c -2,0 -3.45312,-0.70312503 -4.35937,-2.10937505 -0.89844,-1.4140626 -1.34375,-3.2968752 -1.34375,-5.6406253 0,-1.375 0.17187,-3.144531 0.51562,-5.3125 0.35156,-2.164063 0.80469,-4.1875 1.35938,-6.0625 0.28125,-0.976563 0.64843,-1.648438 1.10937,-2.015626 0.45703,-0.375 1.19531,-0.5625 2.21875,-0.5625 1.5625,0 2.34375,0.523438 2.34375,1.562501 0,0.773437 -0.29297,2.554687 -0.875,5.34375 -0.74219,3.386719 -1.10937,5.6796875 -1.10937,6.875 0,0.9179688 0.11718,1.6210938 0.35937,2.1093751 0.25,0.4921875 0.66406,0.734375 1.25,0.734375 0.5625,0 1.25391,-0.3789062 2.07813,-1.140625 0.83203,-0.7695313 1.9375,-1.9843751 3.3125,-3.6406252 0.375,-0.4257809 0.78906,-0.6406249 1.25,-0.6406249 0.39453,0 0.70703,0.183594 0.9375,0.5468749 0.22656,0.3671875 0.34375,0.8710938 0.34375,1.5156251 0,1.2304688 -0.29297,2.1835938 -0.875,2.8593751 -3.03125,3.7187502 -5.8711,5.57812525 -8.51563,5.57812525 z m 8.94141,0 c -1.16797,0 -1.99219,-0.61328128 -2.46875,-1.84375005 -0.48047,-1.2265626 -0.71875,-3.1953127 -0.71875,-5.9062503 0,-3.988281 0.5664,-7.78125 1.70312,-11.375 0.28125,-0.882813 0.73438,-1.535157 1.35938,-1.953126 0.63281,-0.414062 1.51953,-0.625 2.65625,-0.625 0.61328,0 1.03906,0.07813 1.28125,0.234375 0.25,0.15625 0.375,0.449219 0.375,0.875 0,0.492188 -0.23047,1.593751 -0.6875,3.312501 -0.3125,1.230468 -0.5625,2.308593 -0.75,3.234375 -0.17969,0.917969 -0.32813,2.054687 -0.45313,3.40625 1.00782,-2.644531 2.14453,-4.796875 3.40625,-6.453125 1.25782,-1.65625 2.49219,-2.835938 3.70313,-3.546876 1.21875,-0.707031 2.33203,-1.0625 3.34375,-1.0625 2,0 3,1 3,3.000001 0,0.398437 -0.14063,1.367187 -0.42188,2.90625 -0.24218,1.21875 -0.35937,1.984375 -0.35937,2.296875 0,1.074219 0.38281,1.609375 1.15625,1.609375 0.85156,0 1.95703,-0.675781 3.3125,-2.03125 0.39453,-0.394531 0.80469,-0.59375 1.23437,-0.59375 0.40625,0 0.72266,0.179687 0.95313,0.53125 0.22656,0.355469 0.34375,0.824219 0.34375,1.40625 0,1.136719 -0.3086,2.027344 -0.92188,2.6718749 -0.85547,0.8867188 -1.85937,1.6484376 -3.01562,2.2812501 -1.15625,0.6250001 -2.375,0.9375001 -3.65625,0.9375001 -1.63672,0 -2.875,-0.4101563 -3.71875,-1.2343751 -0.84375,-0.8320313 -1.26563,-1.9570313 -1.26563,-3.375 0,-0.457031 0.0469,-0.914063 0.14063,-1.375 0.0625,-0.613281 0.0937,-1.03125 0.0937,-1.25 0,-0.488282 -0.16797,-0.734375 -0.5,-0.734375 -0.46875,0 -1.07813,0.515625 -1.82813,1.546875 -0.75,1.03125 -1.49609,2.390625 -2.23437,4.078125 -0.74219,1.6875 -1.33985,3.4687501 -1.79688,5.3437502 -0.33593,1.4375001 -0.72656,2.4140626 -1.17187,2.92187512 -0.44922,0.51171877 -1.14844,0.76562503 -2.09375,0.76562503 z M 195.2422,-8.89062 c 0.39453,0 0.70703,0.1875 0.9375,0.5625 0.22656,0.3671875 0.34375,0.8710938 0.34375,1.5156251 0,1.1054688 -0.26172,2.0546875 -0.78125,2.8437501 -0.85547,1.3242188 -1.98047,2.3554688 -3.375,3.0937501 -1.39844,0.74218753 -3.0625,1.10937505 -5,1.10937505 -2.94922,0 -5.24219,-0.87890629 -6.875,-2.64062515 -1.625,-1.7695313 -2.4375,-4.1601564 -2.4375,-7.1718753 0,-2.1249999 0.4414,-4.0976559 1.32812,-5.9218749 0.89453,-1.820313 2.13281,-3.269532 3.71875,-4.34375 1.58203,-1.082032 3.375,-1.625001 5.375,-1.625001 1.78125,0 3.20703,0.53125 4.28125,1.593751 1.07031,1.0625 1.60938,2.5 1.60938,4.3125 0,2.117187 -0.76172,3.933594 -2.28125,5.453125 -1.52344,1.5234375 -4.10938,2.7265625 -7.76563,3.6093751 0.73828,1.4179688 1.98438,2.1250001 3.73438,2.1250001 1.25781,0 2.29687,-0.2890626 3.10937,-0.8750001 0.8125,-0.5820313 1.75391,-1.5664063 2.82813,-2.9531251 0.375,-0.4570313 0.78906,-0.6875 1.25,-0.6875 z m -7.5625,-8.0625 c -1.13672,0 -2.09375,0.664062 -2.875,1.984375 -0.78125,1.324219 -1.17188,2.917969 -1.17188,4.78125 v 0.09375 c 1.8125,-0.425781 3.23828,-1.066406 4.28125,-1.921875 1.03906,-0.863281 1.5625,-1.863281 1.5625,-3 0,-0.582032 -0.16406,-1.050782 -0.48437,-1.40625 -0.32422,-0.351563 -0.76172,-0.53125 -1.3125,-0.53125 z m 0,0"
       style="fill:#000000;fill-opacity:1;fill-rule:nonzero;stroke:none"
       aria-label="Tiquetair"
       transform="matrix(0.73184546,0,0,0.73184546,51.176386,151.75087)"
       clip-path="url(#clipPath4)" />
  </g>
</svg>
